<?xml version="1.0" encoding="UTF-8"?>
<svg version="1.1" xmlns="http://www.w3.org/2000/svg" width="541" height="509">
<path d="M0 0 C178.53 0 357.06 0 541 0 C541 167.97 541 335.94 541 509 C362.47 509 183.94 509 0 509 C0 341.03 0 173.06 0 0 Z " fill="#03001E" transform="translate(0,0)"/>
<path d="M0 0 C0 0.66 0 1.32 0 2 C1.00289063 1.96390625 2.00578125 1.9278125 3.0390625 1.890625 C11.94134545 2.13644741 20.96712011 5.22494418 28.95703125 9.0625 C31.82422379 10.37822889 34.78036932 11.3118877 37.78125 12.2734375 C41.23120304 13.40317564 44.60896569 14.70524144 48 16 C47.34 19.3 46.68 22.6 46 26 C45.34 26 44.68 26 44 26 C43.608125 27.2375 43.21625 28.475 42.8125 29.75 C41.19395534 34.62864646 39.21393322 39.31761961 37.20703125 44.046875 C35.60058795 47.9772023 34.2814894 51.95319136 33 56 C32.34 56 31.68 56 31 56 C30.34 58.97 29.68 61.94 29 65 C23.26941324 63.85388265 18.28975338 62.47605477 13 60 C13 59.34 13 58.68 13 58 C12.45472656 57.89042969 11.90945313 57.78085938 11.34765625 57.66796875 C7.47439766 56.8535913 3.72835199 55.96020238 0 54.625 C-10.56199072 50.99315758 -21.82392788 48.35573704 -33 48 C-33.65000977 47.97421875 -34.30001953 47.9484375 -34.96972656 47.921875 C-43.36388613 47.61869994 -51.23502121 47.34589233 -59 51 C-60.11375 51.433125 -61.2275 51.86625 -62.375 52.3125 C-65.76056214 54.48893281 -66.68925054 56.21339046 -68 60 C-68.39712779 64.52725677 -68.14093211 67.95601713 -66 72 C-65.34 72.33 -64.68 72.66 -64 73 C-64 73.66 -64 74.32 -64 75 C-62.68 75.66 -61.36 76.32 -60 77 C-60 77.66 -60 78.32 -60 79 C-58.68 79.33 -57.36 79.66 -56 80 C-56 80.66 -56 81.32 -56 82 C-54.35 82.33 -52.7 82.66 -51 83 C-51 83.66 -51 84.32 -51 85 C-50.33226562 85.103125 -49.66453125 85.20625 -48.9765625 85.3125 C-45.2791696 86.16649101 -41.86977693 87.55294393 -38.375 89 C-33.23160755 91.11581576 -33.23160755 91.11581576 -28 93 C-28 93.66 -28 94.32 -28 95 C-27.33613281 95.10957031 -26.67226563 95.21914062 -25.98828125 95.33203125 C-21.00893596 96.22613267 -17.24036967 97.13488536 -13 100 C-11.34021125 100.72797752 -9.67892989 101.45286652 -8.00805664 102.1550293 C-5.93601549 103.02692406 -3.87549726 103.92219285 -1.81640625 104.82421875 C-1.11708984 105.13037109 -0.41777344 105.43652344 0.30273438 105.75195312 C1.00720703 106.06068359 1.71167969 106.36941406 2.4375 106.6875 C3.16904297 107.00783203 3.90058594 107.32816406 4.65429688 107.65820312 C6.43630425 108.4385593 8.21816733 109.21924499 10 110 C10 110.66 10 111.32 10 112 C10.969375 112.20625 11.93875 112.4125 12.9375 112.625 C17.83260499 114.00927149 22.1107399 116.75454033 26 120 C26 120.66 26 121.32 26 122 C26.556875 122.226875 27.11375 122.45375 27.6875 122.6875 C30.6865221 124.38964768 32.64499245 126.47677762 35 129 C35.49886719 129.52851563 35.99773437 130.05703125 36.51171875 130.6015625 C40.23221908 134.70629586 45 140.17822887 45 146 C45.66 146 46.32 146 47 146 C47 146.99 47 147.98 47 149 C47.66 149 48.32 149 49 149 C55.40804747 174.63585791 50.93690329 198.61353256 38 221 C37.34 221 36.68 221 36 221 C35.74089844 221.59683594 35.48179687 222.19367188 35.21484375 222.80859375 C33.90986856 225.16258437 32.64525787 226.38285656 30.5625 228.0625 C28.80160033 229.49632112 27.11047283 230.88630383 25.52734375 232.515625 C23.80769892 234.18689108 22.02714905 235.40901395 20 236.6875 C19.319375 237.12449219 18.63875 237.56148437 17.9375 238.01171875 C16 239 16 239 13 239 C13 239.66 13 240.32 13 241 C-0.25948916 246.66184122 -12.3426224 251.56374529 -27 251 C-27 251.66 -27 252.32 -27 253 C-43.83 253 -60.66 253 -78 253 C-78 235.84 -78 218.68 -78 201 C-73.38 201.33 -68.76 201.66 -64 202 C-41.64313315 203.467478 -41.64313315 203.467478 -21.25 195.625 C-16.6945845 190.31034859 -15.51530446 186.21050048 -15.79296875 179.3203125 C-16.2375945 174.33714844 -17.78682046 171.99729322 -21.375 168.625 C-30.25709146 161.23664183 -40.92132136 156.09623366 -51.66015625 151.98046875 C-54 151 -54 151 -56.5 149.125 C-60.50384537 146.30244582 -65.1990716 145.35972669 -69.87890625 144.125 C-73.36319722 142.86908536 -75.35112282 141.58363716 -78 139 C-78.61523914 136.36822891 -78.61523914 136.36822891 -78.60127258 133.31793213 C-78.6081459 132.15969437 -78.61501923 131.0014566 -78.62210083 129.80812073 C-78.60412445 128.54145065 -78.58614807 127.27478058 -78.56762695 125.96972656 C-78.56621625 124.61940056 -78.5670089 123.26907072 -78.56983948 121.91874695 C-78.57127422 118.25554127 -78.54187644 114.59315403 -78.50696969 110.93013859 C-78.47571511 107.10115266 -78.47277619 103.27214801 -78.46684265 99.4430542 C-78.45130146 92.19335792 -78.41026961 84.94403859 -78.3600952 77.69450831 C-78.30421003 69.44069604 -78.27671737 61.18686577 -78.25161803 52.9329114 C-78.19935373 35.95505621 -78.11140646 18.97756796 -78 2 C-74.535 1.505 -74.535 1.505 -71 1 C-71 0.34 -71 -0.32 -71 -1 C-46.95015897 -3.68018129 -24.00319389 -3.13085138 0 0 Z " fill="#0BBDDC" transform="translate(362,109)"/>
<path d="M0 0 C17.49 0 34.98 0 53 0 C53 32.34 53 64.68 53 98 C72.14 98 91.28 98 111 98 C111 112.52 111 127.04 111 142 C91.86 142 72.72 142 53 142 C53 177.64 53 213.28 53 250 C35.51 250 18.02 250 0 250 C0 167.5 0 85 0 0 Z " fill="#FEFEFE" transform="translate(147,109)"/>
<path d="M0 0 C4.29 0 8.58 0 13 0 C13 89.43 13 178.86 13 271 C8.71 271 4.42 271 0 271 C0 181.57 0 92.14 0 0 Z " fill="#EBEBED" transform="translate(263,95)"/>
<path d="M0 0 C2.43375 0.185625 4.8675 0.37125 7.375 0.5625 C7.375 8.4825 7.375 16.4025 7.375 24.5625 C8.695 24.5625 10.015 24.5625 11.375 24.5625 C11.375 26.2125 11.375 27.8625 11.375 29.5625 C8 29.6875 8 29.6875 4.375 29.5625 C1.8095406 26.9970406 1.83453913 25.08563332 1.375 21.5625 C0.715 21.8925 0.055 22.2225 -0.625 22.5625 C-3.9375 22.9375 -3.9375 22.9375 -7.625 22.5625 C-10.78454305 20.02112841 -12.34040886 18.41627341 -13.625 14.5625 C-14.12649463 8.44426547 -13.69290897 5.46791964 -9.625 0.5625 C-6.5292768 -0.9853616 -3.35995602 -0.26932026 0 0 Z " fill="#EEF3F1" transform="translate(234.625,396.4375)"/>
<path d="M0 0 C3.67688817 1.63417252 5.94159485 3.53321238 8 7 C8 7.99 8 8.98 8 10 C6.02 10 4.04 10 2 10 C1.67 8.68 1.34 7.36 1 6 C-1.64 6 -4.28 6 -7 6 C-7 7.32 -7 8.64 -7 10 C-5.77023437 10.34611328 -5.77023437 10.34611328 -4.515625 10.69921875 C4.24946695 13.35181237 4.24946695 13.35181237 7.75 16.375 C9.29465884 19.61878356 9.59199921 21.44800473 9 25 C6.84909549 28.33761045 5.79587201 29.73470933 2 31 C-2.27381146 31.4161764 -5.90412539 31.47646722 -9.875 29.75 C-12.0400775 27.966995 -13.56793726 26.41189515 -15 24 C-15 23.01 -15 22.02 -15 21 C-12.1875 20.75 -12.1875 20.75 -9 21 C-8.525625 21.66 -8.05125 22.32 -7.5625 23 C-6.7890625 23.99 -6.7890625 23.99 -6 25 C-2.37436186 25.33380814 -2.37436186 25.33380814 1 25 C1.33 23.35 1.66 21.7 2 20 C1.18015625 19.75765625 0.3603125 19.5153125 -0.484375 19.265625 C-2.10085938 18.76289063 -2.10085938 18.76289063 -3.75 18.25 C-5.35101563 17.76273437 -5.35101563 17.76273437 -6.984375 17.265625 C-10.18846475 15.9209034 -11.85689523 14.71459937 -14 12 C-14.5 8.5 -14.5 8.5 -14 5 C-10.05066204 -0.00249474 -6.18697941 -0.66629009 0 0 Z " fill="#0AB5D4" transform="translate(318,388)"/>
<path d="M0 0 C1.98 0 3.96 0 6 0 C6 3.96 6 7.92 6 12 C9.96 12 13.92 12 18 12 C18 8.04 18 4.08 18 0 C19.98 0 21.96 0 24 0 C24 9.57 24 19.14 24 29 C22.02 29 20.04 29 18 29 C18 25.04 18 21.08 18 17 C14.04 17 10.08 17 6 17 C6 20.96 6 24.92 6 29 C4.02 29 2.04 29 0 29 C0 19.43 0 9.86 0 0 Z " fill="#F7F2E1" transform="translate(122,389)"/>
<path d="M0 0 C2.94445338 1.28019712 4.47843534 2.25490763 6.3125 4.875 C7 7 7 7 7 12 C1.72 12 -3.56 12 -9 12 C-8.34 13.98 -7.68 15.96 -7 18 C-2.66770285 17.1395861 -2.66770285 17.1395861 1 15 C2.66617115 14.95936168 4.33388095 14.957279 6 15 C5.6858889 17.93170364 4.9610478 19.04249331 2.9375 21.25 C-0.84117545 23.5011258 -3.69950933 23.87925012 -8 23 C-11.27981751 20.93228896 -12.84746007 19.22880989 -15 16 C-15.68343706 12.22311096 -15.85107095 8.52813111 -13.94921875 5.11328125 C-9.80703341 0.06690207 -6.34129313 -0.68159773 0 0 Z " fill="#F1F3F3" transform="translate(164,396)"/>
<path d="M0 0 C2.50962043 0.81393095 3.58752043 1.41284047 5.09765625 3.5625 C6.40415609 7.09174633 6.21014644 10.54285511 6.125 14.25 C6.11597656 14.99507813 6.10695313 15.74015625 6.09765625 16.5078125 C6.07418358 18.33868059 6.03831525 20.16938238 6 22 C4.88625 21.979375 3.7725 21.95875 2.625 21.9375 C-0.83215921 21.73619282 -0.83215921 21.73619282 -3 23 C-9.13545817 23.44621514 -9.13545817 23.44621514 -11.9375 22 C-13.66551786 18.7472605 -13.77746239 15.58081237 -13 12 C-9.34147278 8.45580176 -4.8692914 8.41265181 0 8 C-0.66 7.01 -1.32 6.02 -2 5 C-4.75641416 5.49756092 -4.75641416 5.49756092 -7 7 C-8.66617115 7.04063832 -10.33388095 7.042721 -12 7 C-11.64393309 4.41851492 -11.16671807 3.17954253 -9.375 1.25 C-6.09017113 -0.4788573 -3.66355972 -0.32710355 0 0 Z " fill="#0AB5D3" transform="translate(397,396)"/>
<path d="M0 0 C3.58552881 1.63687185 4.79315055 2.68972583 7 6 C7 7.98 7 9.96 7 12 C1.72 12 -3.56 12 -9 12 C-8.01 13.65 -7.02 15.3 -6 17 C-2.87364791 17.41746608 -2.87364791 17.41746608 0 17 C0.33 16.34 0.66 15.68 1 15 C2.98 15 4.96 15 7 15 C4.375 20.75 4.375 20.75 1 23 C-2.06526351 23.54531842 -4.93408329 23.54325893 -8 23 C-10.75569447 20.81840855 -12.43588747 19.12822506 -14 16 C-14.53118252 11.08003072 -14.75105553 7.22672403 -12.125 2.9375 C-8.39201848 -0.46610079 -4.88976035 -0.53496418 0 0 Z " fill="#F2F5F5" transform="translate(283,396)"/>
<path d="M0 0 C5.5 3 5.5 3 7 6 C7 7.98 7 9.96 7 12 C1.72 12 -3.56 12 -9 12 C-6.65964705 17.23006523 -6.65964705 17.23006523 -2.8125 17.8125 C-1.4203125 17.9053125 -1.4203125 17.9053125 0 18 C0.33 17.01 0.66 16.02 1 15 C2.98 15 4.96 15 7 15 C4.60598504 20.50623441 4.60598504 20.50623441 2.3125 22.375 C-1.16201646 23.3140585 -4.46135728 23.58977379 -8 23 C-10.8100346 21.20636089 -12.50940468 19.98119065 -14 17 C-14.51124099 11.79539913 -14.86132441 7.43554069 -12.125 2.875 C-8.39126624 -0.41947097 -4.83983587 -0.67344655 0 0 Z " fill="#0AB6D5" transform="translate(344,396)"/>
<path d="M0 0 C3.6875 0.3125 3.6875 0.3125 5.90234375 1.75390625 C8.57142376 5.57939291 8.12205108 9.01970427 7.9375 13.5625 C7.91945312 14.40296875 7.90140625 15.2434375 7.8828125 16.109375 C7.83580798 18.17757395 7.76406724 20.24518441 7.6875 22.3125 C5.7075 22.3125 3.7275 22.3125 1.6875 22.3125 C1.3575 16.7025 1.0275 11.0925 0.6875 5.3125 C-0.9625 5.6425 -2.6125 5.9725 -4.3125 6.3125 C-4.6425 11.5925 -4.9725 16.8725 -5.3125 22.3125 C-7.2925 22.3125 -9.2725 22.3125 -11.3125 22.3125 C-11.3125 15.3825 -11.3125 8.4525 -11.3125 1.3125 C-9.0025 1.3125 -6.6925 1.3125 -4.3125 1.3125 C-3.3125 0.3125 -3.3125 0.3125 0 0 Z " fill="#E7EFEF" transform="translate(185.3125,395.6875)"/>
<path d="M0 0 C1.98 0 3.96 0 6 0 C6.33 5.28 6.66 10.56 7 16 C8.32 16.33 9.64 16.66 11 17 C13.42479736 13.36280395 13.38662577 11.14296518 13.625 6.8125 C13.69976562 5.54019531 13.77453125 4.26789063 13.8515625 2.95703125 C13.90054687 1.98121094 13.94953125 1.00539063 14 0 C15.65 0 17.3 0 19 0 C19 6.93 19 13.86 19 21 C17.02 21 15.04 21 13 21 C12.34 21.33 11.68 21.66 11 22 C7.625 22.375 7.625 22.375 4 22 C1.62685742 19.88262014 0.18899886 18.19942705 -0.31591797 14.99511719 C-0.39334312 12.71284626 -0.34943519 10.46877263 -0.25 8.1875 C-0.23195312 7.39923828 -0.21390625 6.61097656 -0.1953125 5.79882812 C-0.14844048 3.86535739 -0.0767041 1.93251715 0 0 Z " fill="#F0F5F3" transform="translate(246,397)"/>
<path d="M0 0 C1.2065625 0.0309375 1.2065625 0.0309375 2.4375 0.0625 C2.4375 1.7125 2.4375 3.3625 2.4375 5.0625 C1.2309375 5.5265625 1.2309375 5.5265625 0 6 C-2.45330405 6.82585345 -2.45330405 6.82585345 -3.5625 8.0625 C-3.79777773 10.41237262 -3.97636417 12.76806039 -4.125 15.125 C-4.20878906 16.41535156 -4.29257812 17.70570313 -4.37890625 19.03515625 C-4.43949219 20.03417969 -4.50007813 21.03320312 -4.5625 22.0625 C-6.5425 22.0625 -8.5225 22.0625 -10.5625 22.0625 C-10.5625 15.1325 -10.5625 8.2025 -10.5625 1.0625 C-8.2525 1.0625 -5.9425 1.0625 -3.5625 1.0625 C-2.5625 0.0625 -2.5625 0.0625 0 0 Z " fill="#0AADCF" transform="translate(379.5625,395.9375)"/>
<path d="M0 0 C0 1.65 0 3.3 0 5 C-1.65 5.66 -3.3 6.32 -5 7 C-5.33 11.95 -5.66 16.9 -6 22 C-7.98 22 -9.96 22 -12 22 C-12 15.07 -12 8.14 -12 1 C-4 0 -4 0 0 0 Z " fill="#EDF1F1" transform="translate(209,396)"/>
<path d="M0 0 C0 1.65 0 3.3 0 5 C-0.804375 5.268125 -1.60875 5.53625 -2.4375 5.8125 C-3.283125 6.204375 -4.12875 6.59625 -5 7 C-6.0541518 10.16245541 -6.31275672 12.86948218 -6.5625 16.1875 C-6.64628906 17.27417969 -6.73007812 18.36085938 -6.81640625 19.48046875 C-6.87699219 20.31191406 -6.93757813 21.14335937 -7 22 C-8.65 22 -10.3 22 -12 22 C-12 15.07 -12 8.14 -12 1 C-10.02 1 -8.04 1 -6 1 C-4 0 -4 0 0 0 Z " fill="#0ABBDA" transform="translate(367,396)"/>
<path d="M0 0 C1.98 0 3.96 0 6 0 C6 6.93 6 13.86 6 21 C4.02 21 2.04 21 0 21 C0 14.07 0 7.14 0 0 Z " fill="#ECEDEA" transform="translate(212,397)"/>
<path d="M0 0 C3 0.25 3 0.25 5 2.25 C5.46376812 9.55434783 5.46376812 9.55434783 3 13.25 C0 13.625 0 13.625 -3 13.25 C-5.71232939 9.18150591 -5.30699887 7.08523216 -5 2.25 C-3 0.25 -3 0.25 0 0 Z " fill="#0D0827" transform="translate(232,400.75)"/>
<path d="M0 0 C1.09570312 0.00902344 2.19140625 0.01804687 3.3203125 0.02734375 C4.58488281 0.04474609 4.58488281 0.04474609 5.875 0.0625 C5.875 0.3925 5.875 0.7225 5.875 1.0625 C3.235 1.0625 0.595 1.0625 -2.125 1.0625 C-2.125 1.7225 -2.125 2.3825 -2.125 3.0625 C-18.955 3.0625 -35.785 3.0625 -53.125 3.0625 C-53.125 2.7325 -53.125 2.4025 -53.125 2.0625 C-52.5656778 2.05219254 -52.00635559 2.04188507 -51.43008423 2.03126526 C-45.6228642 1.9233119 -39.81580286 1.80870502 -34.00878906 1.69018555 C-31.83987744 1.64680081 -29.67093087 1.60512839 -27.50195312 1.56518555 C-24.38921565 1.50756861 -21.27665465 1.44384962 -18.1640625 1.37890625 C-17.190065 1.36219376 -16.2160675 1.34548126 -15.21255493 1.32826233 C-14.31177216 1.30831711 -13.41098938 1.28837189 -12.48291016 1.26782227 C-11.29044174 1.24450584 -11.29044174 1.24450584 -10.07388306 1.22071838 C-6.54571475 0.93428709 -3.76704844 -0.04007498 0 0 Z " fill="#076381" transform="translate(337.125,358.9375)"/>
<path d="M0 0 C-0.57344937 2.86724686 -0.8614515 3.8614515 -3 6 C-5.625 5.625 -5.625 5.625 -8 5 C-7.625 3.0625 -7.625 3.0625 -7 1 C-4.53721199 -0.231394 -2.7204945 -0.07159196 0 0 Z " fill="#030C27" transform="translate(397,409)"/>
<path d="M0 0 C2.0625 0.1875 2.0625 0.1875 4 1 C4.33 1.99 4.66 2.98 5 4 C-3.42857143 5.28571429 -3.42857143 5.28571429 -8 4 C-7.67 3.34 -7.34 2.68 -7 2 C-6.21625 2.04125 -5.4325 2.0825 -4.625 2.125 C-1.83883881 2.28728734 -1.83883881 2.28728734 0 0 Z " fill="#030E2E" transform="translate(392,400)"/>
<path d="M0 0 C1.65 0.33 3.3 0.66 5 1 C4.67 2.65 4.34 4.3 4 6 C2.35 5.67 0.7 5.34 -1 5 C-0.67 3.35 -0.34 1.7 0 0 Z " fill="#F2F1EA" transform="translate(213,388)"/>
<path d="M0 0 C2.97 0.495 2.97 0.495 6 1 C6.33 1.99 6.66 2.98 7 4 C3.7 4 0.4 4 -3 4 C-2.01 2.68 -1.02 1.36 0 0 Z " fill="#140F2F" transform="translate(158,400)"/>
<path d="M0 0 C2.97 0.495 2.97 0.495 6 1 C6.33 1.99 6.66 2.98 7 4 C4.03 4 1.06 4 -2 4 C-1.34 2.68 -0.68 1.36 0 0 Z " fill="#030824" transform="translate(338,400)"/>
<path d="M0 0 C0.66 0.99 1.32 1.98 2 3 C-1.3 3 -4.6 3 -8 3 C-7.67 2.01 -7.34 1.02 -7 0 C-4.27584084 -1.36207958 -2.87220643 -0.86166193 0 0 Z " fill="#100C2A" transform="translate(283,401)"/>
</svg>
